# xmcd CD database file
#
# Track frame offsets:
#	182
#	17080
#	42137
#
# Disc length: 934 seconds
#
# Revision: 0
# Processed by: cddbd v1.5PL3 Copyright (c) Steve Scherf et al.
# Submitted via: CDex 1.51
#
DISCID=1903a403
DTITLE=ORANGE CUBE - BICYCLE ABOVE THE SEA(シングル)
DYEAR=2000
DGENRE=Pop
TTITLE0=See-Saw-Girl
TTITLE1=Sunday
TTITLE2=Letter's Again
EXTD=YEAR: 2000
EXTT0=
EXTT1=
EXTT2=
PLAYORDER=
